# xmcd
#
# Track frame offsets:
# 150
# 13249
# 26314
# 36768
# 52500
# 61565
# 76064
# 85821
# 96571
# 111403
# 124337
# 145547
# 159361
# 163831
# 169893
#
# Disc length: 2498 seconds
#
#
# Revision: 4
# Processed by: cddbd v1.5.1PL0 Copyright (c) Steve Scherf et al.
# Submitted via: FreeRIP 2.931 
#
DISCID=b209c00f
DTITLE=Adriana Calcanhoto - A Fábrica Do Poema
DYEAR=1900
DGENRE=
TTITLE0=Por que voce faz cinema?
TTITLE1=A fabrica do poema
TTITLE2=Bagatelas
TTITLE3=Metade
TTITLE4=Sudoeste
TTITLE5=O Verme E A Estrela
TTITLE6=Estrelas
TTITLE7=Aconteceu
TTITLE8=Cariocas
TTITLE9=Morro Dois Irmaos
TTITLE10=Inverno
TTITLE11=Roleta Russa
TTITLE12=Tema De Alice
TTITLE13=Portrait Of Gertrude
TTITLE14=Minha musica
EXTD=
EXTT0=
EXTT1=
EXTT2=
EXTT3=
EXTT4=
EXTT5=
EXTT6=
EXTT7=
EXTT8=
EXTT9=
EXTT10=
EXTT11=
EXTT12=
EXTT13=
EXTT14=
PLAYORDER=
